<svg width="49" height="50" viewBox="0 0 49 50" fill="none" xmlns="http://www.w3.org/2000/svg">
<path d="M24.3344 0.599609C10.8992 0.599609 0 11.5479 0 25.0574C0 38.5606 10.8931 49.5151 24.3344 49.5151C37.7758 49.5151 48.6628 38.5668 48.6628 25.0574C48.6689 11.5479 37.7758 0.599609 24.3344 0.599609ZM24.3836 29.1553C22.2958 27.0138 20.2634 24.934 18.2309 22.8542C18.1818 22.8789 18.1326 22.8974 18.0835 22.9158C18.0835 23.0639 18.0835 23.2183 18.0835 23.3664C18.0835 26.193 18.0774 29.0196 18.0896 31.8461C18.0896 32.0991 18.016 32.2411 17.801 32.3707C16.9537 32.8582 16.1186 33.3704 15.2344 33.9011C15.9651 34.327 16.6589 34.7343 17.3528 35.1354C19.5879 36.4315 21.823 37.7214 24.052 39.0298C24.2853 39.1656 24.445 39.1531 24.6722 39.0173C29.5231 36.1847 34.374 33.358 39.2249 30.5315C39.2925 30.4945 39.3662 30.4575 39.4706 30.3958C39.4828 30.5378 39.4951 30.6427 39.4951 30.7537C39.4951 31.6917 39.489 32.6299 39.5013 33.568C39.5074 33.7962 39.4337 33.9136 39.2372 34.0308C35.117 36.4131 30.9968 38.8013 26.8827 41.1959C26.1152 41.6403 25.3538 42.097 24.5739 42.5289C24.4695 42.5907 24.2792 42.6092 24.1809 42.5536C19.2318 39.7085 14.2949 36.8512 9.35184 33.9938C9.32114 33.9753 9.29658 33.9506 9.22904 33.8951C9.99659 33.4384 10.7396 32.9939 11.4826 32.5496C12.5817 31.8954 13.6808 31.2351 14.7861 30.5933C14.9949 30.476 15.0624 30.3403 15.0624 30.1056C15.0563 26.7915 15.0624 23.4774 15.0501 20.1695C15.0501 19.8486 15.1423 19.6758 15.4186 19.5215C16.223 19.071 17.0028 18.5835 17.8195 18.0958C19.9932 20.2868 22.1669 22.4715 24.3283 24.65C26.5266 22.4653 28.7064 20.3053 30.8985 18.1206C31.7459 18.6266 32.624 19.1388 33.4775 19.6758C33.5696 19.7313 33.6126 19.9289 33.6126 20.0585C33.6187 22.2124 33.6187 24.3661 33.6187 26.5201V26.9767C33.717 26.9335 33.803 26.9088 33.8766 26.8657C34.6933 26.3904 35.5161 25.9153 36.3205 25.4277C36.4126 25.3722 36.4986 25.2178 36.5047 25.1068C36.517 22.8232 36.5047 20.5399 36.517 18.2626C36.517 18.0342 36.3881 17.9662 36.2407 17.8799C33.0108 16.0038 29.781 14.1277 26.545 12.2577C25.9187 11.8935 25.2862 11.5356 24.666 11.153C24.4388 11.011 24.273 11.0171 24.0458 11.153C20.6809 13.1154 17.3037 15.0657 13.9326 17.0221C13.4536 17.2998 12.987 17.5961 12.4896 17.8428C12.2194 17.9786 12.1519 18.1514 12.158 18.4415C12.1703 21.7556 12.158 25.0697 12.1703 28.3776C12.1703 28.674 12.0782 28.8281 11.8264 28.9701C11.0159 29.4268 10.2176 29.9143 9.41325 30.3895C9.35798 30.4204 9.29658 30.4513 9.17377 30.5068V30.0996C9.17377 25.6067 9.17377 21.1077 9.16763 16.6147C9.16763 16.3679 9.2536 16.2445 9.45623 16.1334C13.1896 13.9734 16.9168 11.8071 20.6441 9.6409C21.7985 8.9682 22.959 8.30168 24.1073 7.61664C24.2915 7.50555 24.4143 7.51172 24.6046 7.62281C28.5283 9.91245 32.4521 12.2021 36.3758 14.4855C37.3337 15.0409 38.2855 15.6026 39.2434 16.1581C39.4214 16.263 39.5013 16.3741 39.5013 16.59C39.4951 19.9844 39.4951 23.3787 39.5013 26.7731C39.5013 26.9706 39.446 27.0879 39.2679 27.1866C36.4433 28.8158 33.6249 30.4574 30.8003 32.0929C30.7512 32.1176 30.6959 32.1423 30.6038 32.1855V22.8727C28.5099 24.9834 26.4652 27.0508 24.3836 29.1553Z" fill="#FE152B"/>
</svg>
