<svg width="538" height="540" viewBox="0 0 538 540" fill="none" xmlns="http://www.w3.org/2000/svg" class="w-full h-full">
                        <path d="M340.672 348.195C371.982 329.962 403.224 311.661 434.535 293.497C436.508 292.396 437.121 291.088 437.121 288.887C437.053 251.045 437.053 213.203 437.121 175.362C437.121 172.954 436.304 171.646 434.262 170.546C423.644 164.422 413.026 158.161 402.475 151.9C358.981 126.443 315.419 100.917 271.993 75.3911C269.951 74.2215 268.522 74.1527 266.48 75.3223C253.751 82.9594 240.887 90.3901 228.09 97.8897C186.774 122.04 145.458 146.189 104.074 170.27C101.828 171.578 100.875 172.954 100.875 175.637C100.943 225.726 100.943 275.814 100.943 325.972V330.513C102.236 329.893 102.985 329.618 103.598 329.205C112.514 323.907 121.363 318.472 130.348 313.381C133.138 311.798 134.159 310.078 134.159 306.776C134.023 269.828 134.091 232.881 134.023 196.003C134.023 192.769 134.772 190.842 137.699 189.329C143.144 186.508 148.385 183.205 153.694 180.178C191.062 158.367 228.431 136.626 265.799 114.746C268.317 113.233 270.155 113.233 272.674 114.746C279.548 119.012 286.559 123.003 293.502 127.062C329.305 147.978 365.107 168.894 400.978 189.742C402.612 190.705 404.041 191.462 404.041 194.007C403.905 219.465 403.973 244.922 403.905 270.31C403.905 271.548 402.952 273.268 401.863 273.888C392.878 279.323 383.825 284.621 374.773 289.919C373.956 290.4 373.071 290.676 371.914 291.157V286.066C371.914 262.054 371.914 238.041 371.846 214.029C371.846 212.584 371.369 210.383 370.348 209.763C360.819 203.777 351.154 198.067 341.761 192.425C317.393 216.781 293.298 240.862 268.93 265.219C244.971 240.931 220.875 216.575 196.78 192.15C187.727 197.585 179.083 203.021 170.166 208.043C167.103 209.763 166.082 211.759 166.082 215.268C166.218 252.215 166.15 289.162 166.218 326.109C166.218 328.792 165.402 330.237 163.155 331.545C150.904 338.7 138.72 346.062 126.536 353.355C118.3 358.309 110.132 363.263 101.556 368.354C102.372 368.973 102.645 369.249 102.917 369.455C157.71 401.311 212.435 433.167 267.296 464.885C268.385 465.504 270.495 465.298 271.653 464.609C280.229 459.793 288.737 454.702 297.245 449.748C342.918 423.121 388.522 396.426 434.194 369.868C436.372 368.629 437.189 367.253 437.121 364.708C436.985 354.25 437.053 343.792 437.053 333.333C437.053 332.164 436.849 330.925 436.781 329.343C435.556 330.031 434.807 330.444 434.058 330.857C380.286 362.368 326.514 393.88 272.742 425.461C270.223 426.905 268.522 427.112 265.867 425.598C241.159 411.012 216.383 396.632 191.607 382.184C183.916 377.711 176.224 373.17 168.124 368.423C177.926 362.506 187.183 356.795 196.576 351.36C199.026 349.915 199.775 348.332 199.775 345.512C199.707 314 199.707 282.488 199.707 250.976C199.707 249.325 199.707 247.674 199.707 245.954C200.251 245.678 200.796 245.472 201.34 245.266C223.87 268.521 246.332 291.708 269.543 315.582C292.617 292.12 315.351 269.071 338.493 245.541V349.158C339.582 348.677 340.127 348.47 340.672 348.195Z" fill="white" fill-opacity="0.1"></path>
                        <path d="M269.034 0.366211C120.498 0.366211 0 121.005 0 269.866C0 418.659 120.431 539.366 269.034 539.366C417.637 539.366 538 418.727 538 269.866C538.068 121.005 417.637 0.366211 269.034 0.366211ZM269.577 315.021C246.496 291.424 224.025 268.506 201.555 245.589C201.012 245.861 200.469 246.065 199.926 246.269C199.926 247.901 199.926 249.601 199.926 251.233C199.926 282.379 199.858 313.525 199.993 344.671C199.993 347.459 199.179 349.023 196.803 350.451C187.434 355.823 178.202 361.468 168.426 367.316C176.505 372.008 184.176 376.497 191.847 380.917C216.558 395.198 241.268 409.411 265.911 423.827C268.491 425.323 270.256 425.187 272.768 423.691C326.398 392.477 380.028 361.332 433.659 330.186C434.405 329.778 435.22 329.37 436.374 328.69C436.51 330.254 436.646 331.41 436.646 332.634C436.646 342.971 436.578 353.307 436.713 363.644C436.781 366.16 435.967 367.452 433.794 368.744C388.242 394.994 342.691 421.311 297.207 447.697C288.721 452.593 280.303 457.625 271.681 462.386C270.527 463.066 268.423 463.27 267.337 462.658C212.62 431.308 158.04 399.822 103.391 368.336C103.052 368.132 102.78 367.86 102.033 367.248C110.519 362.216 118.733 357.319 126.948 352.423C139.099 345.215 151.251 337.938 163.471 330.866C165.779 329.574 166.525 328.078 166.525 325.494C166.458 288.975 166.525 252.457 166.39 216.007C166.39 212.471 167.408 210.567 170.463 208.867C179.356 203.902 187.978 198.53 197.006 193.158C221.038 217.299 245.07 241.373 268.966 265.378C293.269 241.305 317.369 217.503 341.605 193.43C350.973 199.006 360.681 204.65 370.117 210.567C371.135 211.179 371.61 213.355 371.61 214.783C371.678 238.516 371.678 262.25 371.678 285.983V291.016C372.764 290.539 373.715 290.267 374.529 289.791C383.558 284.555 392.655 279.319 401.548 273.947C402.567 273.334 403.517 271.634 403.585 270.41C403.721 245.249 403.585 220.087 403.721 194.994C403.721 192.478 402.295 191.73 400.666 190.778C364.957 170.104 329.249 149.431 293.473 128.826C286.549 124.814 279.556 120.869 272.7 116.653C270.188 115.089 268.355 115.157 265.843 116.653C228.642 138.278 191.304 159.768 154.034 181.325C148.739 184.385 143.58 187.649 138.081 190.37C135.094 191.866 134.347 193.77 134.415 196.966C134.551 233.484 134.415 270.002 134.551 306.452C134.551 309.717 133.533 311.417 130.749 312.981C121.788 318.013 112.963 323.385 104.07 328.622C103.459 328.962 102.78 329.302 101.422 329.914V325.426C101.422 275.919 101.422 226.344 101.354 176.837C101.354 174.117 102.305 172.756 104.545 171.532C145.82 147.731 187.027 123.862 228.234 99.9921C240.997 92.5797 253.827 85.2353 266.522 77.6868C268.559 76.4627 269.916 76.5307 272.021 77.7548C315.4 102.984 358.78 128.214 402.159 153.375C412.75 159.496 423.272 165.684 433.862 171.804C435.831 172.96 436.713 174.185 436.713 176.565C436.646 213.967 436.646 251.369 436.713 288.771C436.713 290.947 436.102 292.24 434.134 293.328C402.906 311.281 371.746 329.37 340.518 347.391C339.975 347.663 339.364 347.935 338.346 348.411V245.793C315.197 269.05 292.591 291.832 269.577 315.021Z" fill="url(#paint0_radial_495_19915)"></path>
                        <defs>
                           <radialGradient id="paint0_radial_495_19915" cx="0" cy="0" r="1" gradientUnits="userSpaceOnUse" gradientTransform="translate(269 269.866) rotate(90) scale(269.5 269)">
                              <stop stop-color="white" stop-opacity="0.3"></stop>
                              <stop offset="1" stop-color="white" stop-opacity="0"></stop>
                           </radialGradient>
                        </defs>
                  </svg>