<svg width="44" height="45" viewBox="0 0 44 45" fill="none" xmlns="http://www.w3.org/2000/svg">
                              <path fill-rule="evenodd" clip-rule="evenodd" d="M4 22.3662C4 12.4251 12.0589 4.36621 22 4.36621C31.9411 4.36621 40 12.4251 40 22.3662C40 32.3073 31.9411 40.3662 22 40.3662C12.0589 40.3662 4 32.3073 4 22.3662ZM22 0.366211C9.84974 0.366211 0 10.2159 0 22.3662C0 34.5165 9.84974 44.3662 22 44.3662C34.1503 44.3662 44 34.5165 44 22.3662C44 10.2159 34.1503 0.366211 22 0.366211ZM31.2831 15.8567C31.8958 14.9376 31.6474 13.6959 30.7284 13.0832C29.8093 12.4705 28.5676 12.7188 27.9549 13.6379L19.1494 26.8461L15.7951 23.4918C15.014 22.7108 13.7477 22.7108 12.9666 23.4918C12.1856 24.2729 12.1856 25.5392 12.9666 26.3202L18.046 31.3996C18.4697 31.8233 19.061 32.0347 19.6573 31.9757C20.2536 31.9166 20.792 31.5934 21.1243 31.0948L31.2831 15.8567Z" fill="white"></path>
                           </svg>