<svg xmlns="http://www.w3.org/2000/svg" width="49" height="48" viewBox="0 0 49 48" fill="none">
    <g clip-path="url(#clip0_971_1160)">
        <path fill-rule="evenodd" clip-rule="evenodd"
            d="M25.5002 6.18119C23.6769 4.81159 21.4105 4 18.9545 4C12.9296 4 8.04545 8.88416 8.04545 14.9091C8.04545 18.0687 9.38866 20.9145 11.5352 22.9067C5.70879 25.3015 1.5 30.4448 1.5 36.7273C1.5 37.9322 2.47683 38.9091 3.68182 38.9091L47.3182 38.9094C48.5232 38.9094 49.5 37.9326 49.5 36.7276C49.5 30.445 45.2911 25.3017 39.4645 22.907C41.6112 20.9147 42.9545 18.0688 42.9545 14.9091C42.9545 8.88416 38.0704 4 32.0455 4C29.5899 4 27.3226 4.8129 25.5002 6.18119ZM28.3594 20.4404C29.3153 18.8186 29.8636 16.9279 29.8636 14.9091C29.8636 12.9263 29.3346 11.067 28.4101 9.46476C29.4505 8.76824 30.7001 8.36363 32.0455 8.36363C35.6604 8.36363 38.5909 11.2941 38.5909 14.9091C38.5909 18.524 35.6604 21.4545 32.0455 21.4545L32.0123 21.4548C31.0073 21.4487 29.5956 21.1646 28.3594 20.4404ZM36.2363 34.5458C35.679 31.0702 33.8081 28.0424 31.1297 25.7765C31.4548 25.8054 31.7619 25.8185 32.0455 25.8185C38.6262 25.8185 43.6721 29.7517 44.8666 34.5458H36.2363Z"
            fill="white" />
    </g>
    <defs>
        <clipPath id="clip0_971_1160">
            <rect width="48" height="48" fill="white" transform="translate(0.5)" />
        </clipPath>
    </defs>
</svg>