<svg width="210" height="51" viewBox="0 0 210 51" fill="none" xmlns="http://www.w3.org/2000/svg">
  <g clip-path="url(#clip0_1_425)">
  <path d="M178.076 16.8597C180.729 16.8597 182.851 18.0321 184.023 20.4157H189.721C188.058 15.3263 183.597 12.376 178.114 12.376C171.001 12.376 165.584 17.6432 165.584 25.0772C165.584 32.5113 171.001 37.7396 178.114 37.7396C183.597 37.7396 188.058 34.8226 189.721 29.6999H184.023C182.857 32.1168 180.729 33.2947 178.076 33.2947C173.759 33.2947 170.68 30.0944 170.68 25.0772C170.68 20.0212 173.759 16.8597 178.076 16.8597Z" fill="white"/>
  <path d="M104.819 12.6592L116.039 29.7331V12.6592H120.992V37.5284H116.039L104.819 20.4878V37.5284H99.8669V12.6592H104.819Z" fill="white"/>
  <path d="M74.3148 31.1609L66.4552 12.6924H60.8286V37.5282H65.7809V21.3766L72.4356 37.5282H76.1885L82.8044 21.3766V37.5282H87.7623V12.6924H82.1688L74.3148 31.1609Z" fill="white"/>
  <path d="M96.285 12.6924H91.3329V37.5226H96.285V12.6924Z" fill="white"/>
  <path d="M140.74 29.7331L129.52 12.6592H124.568V37.5284H129.52V20.4878L140.74 37.5284H145.692V12.6592H140.74V29.7331Z" fill="white"/>
  <path d="M163.6 37.5284H149.268V12.6592H163.6V16.7152H154.226V22.938H162.539V26.8884H154.226V33.4724H163.6V37.5284Z" fill="white"/>
  <path d="M191.346 16.715V12.6924H209.469V16.715H202.887V37.5282H197.929V16.715H191.346Z" fill="white"/>
  <path d="M30.8142 32.1656C33.6462 30.511 36.4721 28.85 39.3042 27.2015C39.4827 27.1017 39.5381 26.983 39.5381 26.7832C39.532 23.349 39.532 19.9148 39.5381 16.4805C39.5381 16.262 39.4643 16.1434 39.2796 16.0434C38.3191 15.4877 37.3587 14.9195 36.4044 14.3513C32.4703 12.041 28.53 9.72454 24.6021 7.408C24.4174 7.30185 24.2881 7.29561 24.1034 7.40175C22.9521 8.09484 21.7885 8.7692 20.6311 9.4498C16.894 11.6414 13.1569 13.8331 9.41363 16.0185C9.21046 16.1371 9.12427 16.262 9.12427 16.5055C9.13042 21.0512 9.13042 25.5968 9.13042 30.1487V30.5608C9.2474 30.5046 9.31512 30.4797 9.37053 30.4422C10.1771 29.9614 10.9774 29.4681 11.7901 29.0061C12.0425 28.8625 12.1349 28.7064 12.1349 28.4066C12.1226 25.0536 12.1287 21.7005 12.1226 18.3537C12.1226 18.0603 12.1903 17.8854 12.455 17.7481C12.9475 17.4921 13.4216 17.1924 13.9018 16.9176C17.2818 14.9383 20.6618 12.9651 24.0418 10.9795C24.2696 10.8422 24.4359 10.8422 24.6637 10.9795C25.2855 11.3667 25.9196 11.7288 26.5476 12.0972C29.786 13.9954 33.0244 15.8936 36.2689 17.7855C36.4167 17.873 36.546 17.9416 36.546 18.1727C36.5337 20.483 36.5398 22.7933 36.5337 25.0973C36.5337 25.2097 36.4475 25.3658 36.349 25.422C35.5363 25.9153 34.7175 26.3961 33.8986 26.8768C33.8248 26.9206 33.7447 26.9455 33.6401 26.9892V26.5272C33.6401 24.348 33.6401 22.1688 33.6339 19.9897C33.6339 19.8586 33.5908 19.6587 33.4985 19.6026C32.6365 19.0593 31.7623 18.5411 30.9127 18.0291C28.7086 20.2394 26.5291 22.4249 24.325 24.6352C22.1579 22.4311 19.9784 20.2207 17.799 18.0041C16.9802 18.4974 16.1983 18.9906 15.3917 19.4465C15.1147 19.6026 15.0223 19.7836 15.0223 20.1021C15.0347 23.4551 15.0285 26.8082 15.0347 30.1612C15.0347 30.4047 14.9608 30.5359 14.7576 30.6545C13.6494 31.3039 12.5474 31.972 11.4453 32.6339C10.7004 33.0834 9.96157 33.533 9.18583 33.995C9.25971 34.0512 9.28434 34.0762 9.30897 34.095C14.2651 36.9859 19.215 39.8769 24.1773 42.7554C24.2758 42.8116 24.4666 42.7929 24.5713 42.7305C25.347 42.2934 26.1166 41.8313 26.8862 41.3817C31.0173 38.9653 35.1423 36.5427 39.2734 34.1325C39.4704 34.0201 39.5443 33.8952 39.5381 33.6642C39.5258 32.715 39.532 31.7659 39.532 30.8168C39.532 30.7107 39.5135 30.5983 39.5073 30.4547C39.3965 30.5171 39.3288 30.5546 39.2611 30.5921C34.3973 33.4518 29.5336 36.3117 24.6698 39.1777C24.442 39.3088 24.2881 39.3275 24.048 39.1901C21.8131 37.8664 19.5721 36.5613 17.3311 35.2501C16.6354 34.8442 15.9397 34.4321 15.207 34.0014C16.0936 33.4643 16.9309 32.9461 17.7805 32.4529C18.0022 32.3216 18.0699 32.178 18.0699 31.922C18.0637 29.0623 18.0637 26.2025 18.0637 23.3427C18.0637 23.1929 18.0637 23.043 18.0637 22.8869C18.113 22.8619 18.1622 22.8432 18.2115 22.8245C20.2493 24.935 22.281 27.0392 24.3805 29.2059C26.4676 27.0767 28.5239 24.9849 30.6171 22.8494V32.253C30.7156 32.2093 30.7649 32.1905 30.8142 32.1656Z" fill="transparent"/>
  <path d="M24.3344 0.599609C10.8992 0.599609 0 11.5479 0 25.0574C0 38.5606 10.8931 49.5151 24.3344 49.5151C37.7758 49.5151 48.6628 38.5668 48.6628 25.0574C48.6689 11.5479 37.7758 0.599609 24.3344 0.599609ZM24.3836 29.1553C22.2958 27.0138 20.2634 24.934 18.2309 22.8542C18.1818 22.8789 18.1326 22.8974 18.0835 22.9158C18.0835 23.0639 18.0835 23.2183 18.0835 23.3664C18.0835 26.193 18.0774 29.0196 18.0896 31.8461C18.0896 32.0991 18.016 32.2411 17.801 32.3707C16.9537 32.8582 16.1186 33.3704 15.2344 33.9011C15.9651 34.327 16.6589 34.7343 17.3528 35.1354C19.5879 36.4315 21.823 37.7214 24.052 39.0298C24.2853 39.1656 24.445 39.1531 24.6722 39.0173C29.5231 36.1847 34.374 33.358 39.2249 30.5315C39.2925 30.4945 39.3662 30.4575 39.4706 30.3958C39.4828 30.5378 39.4951 30.6427 39.4951 30.7537C39.4951 31.6917 39.489 32.6299 39.5013 33.568C39.5074 33.7962 39.4337 33.9136 39.2372 34.0308C35.117 36.4131 30.9968 38.8013 26.8827 41.1959C26.1152 41.6403 25.3538 42.097 24.5739 42.5289C24.4695 42.5907 24.2792 42.6092 24.1809 42.5536C19.2318 39.7085 14.2949 36.8512 9.35184 33.9938C9.32114 33.9753 9.29658 33.9506 9.22904 33.8951C9.99659 33.4384 10.7396 32.9939 11.4826 32.5496C12.5817 31.8954 13.6808 31.2351 14.7861 30.5933C14.9949 30.476 15.0624 30.3403 15.0624 30.1056C15.0563 26.7915 15.0624 23.4774 15.0501 20.1695C15.0501 19.8486 15.1423 19.6758 15.4186 19.5215C16.223 19.071 17.0028 18.5835 17.8195 18.0958C19.9932 20.2868 22.1669 22.4715 24.3283 24.65C26.5266 22.4653 28.7064 20.3053 30.8985 18.1206C31.7459 18.6266 32.624 19.1388 33.4775 19.6758C33.5696 19.7313 33.6126 19.9289 33.6126 20.0585C33.6187 22.2124 33.6187 24.3661 33.6187 26.5201V26.9767C33.717 26.9335 33.803 26.9088 33.8766 26.8657C34.6933 26.3904 35.5161 25.9153 36.3205 25.4277C36.4126 25.3722 36.4986 25.2178 36.5047 25.1068C36.517 22.8232 36.5047 20.5399 36.517 18.2626C36.517 18.0342 36.3881 17.9662 36.2407 17.8799C33.0108 16.0038 29.781 14.1277 26.545 12.2577C25.9187 11.8935 25.2862 11.5356 24.666 11.153C24.4388 11.011 24.273 11.0171 24.0458 11.153C20.6809 13.1154 17.3037 15.0657 13.9326 17.0221C13.4536 17.2998 12.987 17.5961 12.4896 17.8428C12.2194 17.9786 12.1519 18.1514 12.158 18.4415C12.1703 21.7556 12.158 25.0697 12.1703 28.3776C12.1703 28.674 12.0782 28.8281 11.8264 28.9701C11.0159 29.4268 10.2176 29.9143 9.41325 30.3895C9.35798 30.4204 9.29658 30.4513 9.17377 30.5068V30.0996C9.17377 25.6067 9.17377 21.1077 9.16763 16.6147C9.16763 16.3679 9.2536 16.2445 9.45623 16.1334C13.1896 13.9734 16.9168 11.8071 20.6441 9.6409C21.7985 8.9682 22.959 8.30168 24.1073 7.61664C24.2915 7.50555 24.4143 7.51172 24.6046 7.62281C28.5283 9.91245 32.4521 12.2021 36.3758 14.4855C37.3337 15.0409 38.2855 15.6026 39.2434 16.1581C39.4214 16.263 39.5013 16.3741 39.5013 16.59C39.4951 19.9844 39.4951 23.3787 39.5013 26.7731C39.5013 26.9706 39.446 27.0879 39.2679 27.1866C36.4433 28.8158 33.6249 30.4574 30.8003 32.0929C30.7512 32.1176 30.6959 32.1423 30.6038 32.1855V22.8727C28.5099 24.9834 26.4652 27.0508 24.3836 29.1553Z" fill="white"/>
  </g>
  <defs>
  <clipPath id="clip0_1_425">
  <path d="M0 0.03125H210V50.0312H0V0.03125Z" fill="white"/>
  </clipPath>
  </defs>
  </svg>
  