<svg xmlns="http://www.w3.org/2000/svg" width="49" height="48" viewBox="0 0 49 48" fill="none">
    <path d="M20.5 6L14.5 6C13.3954 6 12.5 6.89543 12.5 8L12.5 40C12.5 41.1046 13.3954 42 14.5 42H34.5C35.6046 42 36.5 41.1046 36.5 40L36.5 8C36.5 6.89543 35.6046 6 34.5 6L28.5 6M20.5 6L28.5 6M20.5 6V8M28.5 6V8M28.5 8V8C28.5 9.10457 27.6046 10 26.5 10L22.5 10C21.3954 10 20.5 9.10457 20.5 8V8M28.5 8L20.5 8" stroke="white" stroke-width="2" stroke-linecap="round" stroke-linejoin="round"/>
    <path d="M18.5 16.002L18.5 16" stroke="white" stroke-width="2" stroke-linecap="round" stroke-linejoin="round"/>
    <path d="M18.5 22.002L18.5 22" stroke="white" stroke-width="2" stroke-linecap="round" stroke-linejoin="round"/>
    <path d="M24.5 22.002L24.5 22" stroke="white" stroke-width="2" stroke-linecap="round" stroke-linejoin="round"/>
    <path d="M24.5 16.002L24.5 16" stroke="white" stroke-width="2" stroke-linecap="round" stroke-linejoin="round"/>
    <path d="M30.5 16.002L30.5 16" stroke="white" stroke-width="2" stroke-linecap="round" stroke-linejoin="round"/>
    <path d="M30.5 22.002L30.5 22" stroke="white" stroke-width="2" stroke-linecap="round" stroke-linejoin="round"/>
    <path d="M18.5 28.002L18.5 28" stroke="white" stroke-width="2" stroke-linecap="round" stroke-linejoin="round"/>
    <path d="M24.5 28.002L24.5 28" stroke="white" stroke-width="2" stroke-linecap="round" stroke-linejoin="round"/>
    </svg>