<svg xmlns="http://www.w3.org/2000/svg" width="49" height="48" viewBox="0 0 49 48" fill="none">
    <path fill-rule="evenodd" clip-rule="evenodd"
        d="M8.5 18V12C8.5 10.8954 9.39543 10 10.5 10H16.5H32.5H38.5C39.6046 10 40.5 10.8954 40.5 12V18H8.5ZM39.5 32C39.5 31.4477 39.0523 31 38.5 31C37.9477 31 37.5 31.4477 37.5 32V37H32.5C31.9477 37 31.5 37.4477 31.5 38C31.5 38.5523 31.9477 39 32.5 39H37.5V44C37.5 44.5523 37.9477 45 38.5 45C39.0523 45 39.5 44.5523 39.5 44V39H44.5C45.0523 39 45.5 38.5523 45.5 38C45.5 37.4477 45.0523 37 44.5 37H39.5V32Z"
        fill="white" />
    <path
        d="M8.5 18H7.5C7.5 18.5523 7.94772 19 8.5 19V18ZM40.5 18V19C41.0523 19 41.5 18.5523 41.5 18H40.5ZM37.5 37V38C38.0523 38 38.5 37.5523 38.5 37H37.5ZM37.5 39H38.5C38.5 38.4477 38.0523 38 37.5 38V39ZM39.5 39V38C38.9477 38 38.5 38.4477 38.5 39H39.5ZM39.5 37H38.5C38.5 37.5523 38.9477 38 39.5 38V37ZM31.5 10C31.5 10.5523 31.9477 11 32.5 11C33.0523 11 33.5 10.5523 33.5 10H31.5ZM33.5 6C33.5 5.44772 33.0523 5 32.5 5C31.9477 5 31.5 5.44772 31.5 6H33.5ZM17.5 6C17.5 5.44772 17.0523 5 16.5 5C15.9477 5 15.5 5.44772 15.5 6H17.5ZM15.5 10C15.5 10.5523 15.9477 11 16.5 11C17.0523 11 17.5 10.5523 17.5 10H15.5ZM9.5 19C9.5 18.4477 9.05228 18 8.5 18C7.94772 18 7.5 18.4477 7.5 19H9.5ZM41.5 19C41.5 18.4477 41.0523 18 40.5 18C39.9477 18 39.5 18.4477 39.5 19H41.5ZM39.5 24.5C39.5 25.0523 39.9477 25.5 40.5 25.5C41.0523 25.5 41.5 25.0523 41.5 24.5H39.5ZM26.5 43C27.0523 43 27.5 42.5523 27.5 42C27.5 41.4477 27.0523 41 26.5 41V43ZM7.5 12V18H9.5V12H7.5ZM10.5 9C8.84315 9 7.5 10.3431 7.5 12H9.5C9.5 11.4477 9.94772 11 10.5 11V9ZM16.5 9H10.5V11H16.5V9ZM32.5 9H16.5V11H32.5V9ZM38.5 9H32.5V11H38.5V9ZM41.5 12C41.5 10.3431 40.1569 9 38.5 9V11C39.0523 11 39.5 11.4477 39.5 12H41.5ZM41.5 18V12H39.5V18H41.5ZM8.5 19H40.5V17H8.5V19ZM38.5 32H40.5C40.5 30.8954 39.6046 30 38.5 30V32ZM38.5 32V30C37.3954 30 36.5 30.8954 36.5 32H38.5ZM38.5 37V32H36.5V37H38.5ZM32.5 38H37.5V36H32.5V38ZM32.5 38V36C31.3954 36 30.5 36.8954 30.5 38H32.5ZM32.5 38H30.5C30.5 39.1046 31.3954 40 32.5 40V38ZM37.5 38H32.5V40H37.5V38ZM38.5 44V39H36.5V44H38.5ZM38.5 44H36.5C36.5 45.1046 37.3954 46 38.5 46V44ZM38.5 44V46C39.6046 46 40.5 45.1046 40.5 44H38.5ZM38.5 39V44H40.5V39H38.5ZM44.5 38H39.5V40H44.5V38ZM44.5 38V40C45.6046 40 46.5 39.1046 46.5 38H44.5ZM44.5 38H46.5C46.5 36.8954 45.6046 36 44.5 36V38ZM39.5 38H44.5V36H39.5V38ZM38.5 32V37H40.5V32H38.5ZM33.5 10V6H31.5V10H33.5ZM15.5 6V10H17.5V6H15.5ZM9.5 40V19H7.5V40H9.5ZM39.5 19V24.5H41.5V19H39.5ZM26.5 41H10.5V43H26.5V41ZM7.5 40C7.5 41.6569 8.84315 43 10.5 43V41C9.94772 41 9.5 40.5523 9.5 40H7.5Z"
        fill="white" />
</svg>